<svg xmlns="http://www.w3.org/2000/svg" viewBox="0 0 1024 1024" width="256" height="256"><path d="M904 456h-56c-30.9 0-56 25.1-56 56 0 154.4-125.6 280-280 280S232 666.4 232 512s125.6-280 280-280c22.9 0 42.5-13.9 51.2-33.6h220.4c4.6 0 8.4-3.8 8.4-8.4 0-4.6-3.8-8.4-8.4-8.4H566.9c0.2-1.9 1.1-3.6 1.1-5.6v-19.6h215.6c4.6 0 8.4-3.8 8.4-8.4 0-4.6-3.8-8.4-8.4-8.4H568V120c0-2-0.9-3.7-1.1-5.6h216.7c4.6 0 8.4-3.8 8.4-8.4 0-4.6-3.8-8.4-8.4-8.4H563.2C554.5 77.9 534.9 64 512 64 264.6 64 64 264.6 64 512s200.6 448 448 448 448-200.6 448-448c0-30.9-25.1-56-56-56zM512 904c-216.1 0-392-175.9-392-392s175.9-392 392-392v56c-185.6 0-336 150.4-336 336s150.4 336 336 336 336-150.4 336-336h56c0 216.1-175.9 392-392 392z"/></svg>